<svg width="17" height="20" viewBox="0 0 17 20" fill="none" xmlns="http://www.w3.org/2000/svg">
<g id="Iconly/Light-Outline/Arrow---Up">
<g id="Arrow---Up">
<path id="Combined-Shape" d="M8.7883 20C8.32807 20 7.94771 19.658 7.88751 19.2143L7.87921 19.0909L7.87994 3.1103L2.13021 8.88362C1.77595 9.23941 1.20035 9.24065 0.84456 8.88639C0.521119 8.56434 0.49069 8.05935 0.753989 7.70289L0.841792 7.60074L8.14361 0.26741C8.19031 0.220512 8.24084 0.179777 8.29421 0.145205C8.31028 0.135441 8.32671 0.125501 8.34348 0.116077C8.35785 0.10741 8.37277 0.0995771 8.38786 0.0921879C8.40981 0.0819251 8.43249 0.0718977 8.45563 0.0627939C8.47347 0.0553966 8.49082 0.0492202 8.50831 0.0435864C8.53 0.0368885 8.55312 0.030381 8.57658 0.0247834C8.59296 0.0206219 8.60873 0.0173261 8.62456 0.0144513C8.64812 0.0104087 8.67249 0.00696758 8.69715 0.00451231C8.71596 0.00239231 8.7346 0.00111626 8.75325 0.000410929C8.76456 0.000228626 8.77641 -5.96046e-07 8.7883 -5.96046e-07L8.82352 0.000454856C8.84136 0.0011517 8.85919 0.00237028 8.87697 0.00411234L8.7883 -5.96046e-07C8.84567 -5.96046e-07 8.9018 0.00531321 8.95622 0.0154755C8.96922 0.0178322 8.98256 0.0206405 8.99585 0.0237499C9.02321 0.0302078 9.04957 0.0376706 9.0754 0.0462636C9.08824 0.0504813 9.10195 0.0553946 9.11557 0.0606462C9.14292 0.0712697 9.169 0.0828165 9.1944 0.0955194C9.20634 0.101421 9.21884 0.10803 9.23122 0.114951C9.25141 0.126312 9.2706 0.138015 9.2893 0.150391C9.30254 0.159122 9.31632 0.168791 9.32988 0.178888L9.34036 0.186755C9.37236 0.211248 9.40268 0.237818 9.43113 0.266265L9.43197 0.267357L16.735 7.60069C17.0893 7.95645 17.0881 8.53205 16.7323 8.88634C16.4089 9.20841 15.9038 9.23671 15.5485 8.97191L15.4467 8.88367L9.69812 3.11273L9.69739 19.0909C9.69739 19.593 9.29038 20 8.7883 20Z" fill="white"/>
</g>
</g>
</svg>
